<?xml version="1.0" standalone="no"?>
<!DOCTYPE svg PUBLIC "-//W3C//DTD SVG 20010904//EN"
 "http://www.w3.org/TR/2001/REC-SVG-20010904/DTD/svg10.dtd">
<svg version="1.0" xmlns="http://www.w3.org/2000/svg"
 width="1600.000000pt" height="1200.000000pt" viewBox="0 0 1600.000000 1200.000000"
 preserveAspectRatio="xMidYMid meet">

<g transform="translate(0.000000,1200.000000) scale(0.100000,-0.100000)"
fill="#000000" stroke="none">
<path d="M0 6000 l0 -6000 8000 0 8000 0 0 6000 0 6000 -8000 0 -8000 0 0
-6000z m6297 4704 c344 -51 717 -213 1123 -488 283 -192 537 -404 890 -743
l125 -120 175 170 c556 540 1102 914 1557 1066 190 63 265 76 453 76 144 0
175 -3 245 -24 323 -95 540 -363 624 -769 35 -166 44 -270 43 -492 -1 -368
-44 -681 -158 -1145 -44 -181 -110 -414 -119 -423 -14 -15 -13 11 5 69 18 61
95 366 106 419 3 14 12 54 20 90 19 81 20 84 28 143 4 27 10 59 12 70 3 12 12
78 20 147 8 69 20 152 25 185 14 84 14 463 0 498 -6 16 -11 59 -11 97 0 63 -2
69 -20 67 -15 -1 -20 -8 -20 -29 0 -15 -4 -28 -9 -28 -7 0 -11 -29 -27 -220
-8 -94 -32 -301 -48 -405 -12 -77 -28 -160 -87 -445 -5 -25 -21 -90 -35 -145
-14 -55 -28 -107 -30 -115 -5 -20 -36 -126 -65 -220 -12 -41 -28 -82 -35 -90
-9 -9 -7 8 6 55 156 536 240 1035 240 1420 -1 616 -180 977 -531 1072 -87 24
-266 23 -379 0 -361 -76 -728 -277 -1210 -661 -190 -151 -630 -557 -630 -581
0 -6 10 -21 23 -35 12 -14 58 -66 103 -115 302 -337 623 -747 928 -1186 25
-35 27 -37 108 -43 436 -38 1121 -145 1508 -237 804 -191 1431 -443 1847 -744
110 -80 289 -251 353 -340 193 -264 225 -570 89 -843 -243 -483 -988 -904
-2094 -1183 -71 -18 -131 -33 -133 -35 -2 -1 8 -46 23 -101 129 -475 206 -883
229 -1218 l5 -80 -14 45 c-9 25 -22 99 -30 165 -24 187 -49 365 -60 414 -2 14
-9 61 -16 105 -6 45 -14 85 -19 91 -5 6 -11 30 -14 55 -3 25 -31 144 -62 265
-77 299 -75 271 -23 285 24 7 62 18 84 25 22 8 60 17 85 20 25 4 50 11 55 15
6 5 24 10 40 13 17 3 57 14 90 26 32 11 68 21 80 21 11 1 38 9 60 20 22 11 48
19 58 20 11 0 31 6 45 14 15 8 65 27 112 41 47 15 95 33 107 41 12 8 29 14 38
14 8 0 23 4 33 9 25 14 111 51 116 51 3 0 42 18 88 40 46 22 91 40 101 40 9 0
17 4 17 10 0 5 20 19 45 31 25 12 48 25 51 30 3 5 13 9 24 9 10 0 20 7 24 15
3 8 13 15 23 16 10 0 32 10 49 22 17 12 55 38 83 57 38 25 54 43 59 65 l6 30
7 -25 7 -25 1 25 c1 15 5 30 11 36 24 24 -48 11 -109 -20 -97 -49 -141 -67
-152 -61 -5 4 -9 0 -9 -8 0 -8 -12 -18 -27 -22 -15 -3 -52 -18 -83 -32 -30
-14 -64 -29 -75 -33 -11 -4 -65 -25 -120 -46 -55 -22 -106 -38 -112 -38 -7 1
-13 -2 -13 -6 0 -5 -117 -48 -180 -65 -3 -1 -12 -4 -20 -8 -61 -24 -198 -67
-217 -67 -12 0 -24 -4 -27 -9 -3 -5 -35 -14 -71 -21 -36 -7 -65 -16 -65 -21 0
-5 -13 -9 -29 -9 -16 0 -47 -7 -70 -15 -23 -8 -45 -15 -49 -16 -4 -1 -11 -3
-17 -5 -10 -4 -163 -39 -215 -50 -14 -3 -39 -9 -57 -13 -25 -7 -30 -6 -27 4 3
8 12 16 21 19 12 5 14 15 8 43 -4 21 -12 47 -18 58 -6 11 -12 27 -13 35 -2 8
-7 23 -12 35 -5 11 -24 63 -42 115 -18 52 -48 138 -67 190 -18 52 -38 107 -42
121 -5 14 -16 40 -26 58 -9 19 -19 45 -21 59 -3 15 -9 31 -14 37 -5 6 -18 37
-30 70 -13 33 -26 64 -31 70 -5 5 -9 15 -9 23 0 8 -13 42 -29 76 -16 33 -46
99 -66 146 -21 47 -65 141 -98 210 -98 207 -98 205 -85 242 6 18 16 40 23 48
6 8 19 33 27 55 9 22 35 81 58 130 23 50 47 104 55 120 7 17 29 67 49 111 20
45 36 89 36 98 0 9 4 16 9 16 5 0 12 10 16 23 3 12 13 40 22 62 8 22 19 49 23
60 23 59 52 117 56 113 5 -6 -73 -210 -118 -308 -17 -36 -38 -85 -48 -110 -10
-25 -60 -135 -112 -246 l-94 -201 59 -124 c185 -391 359 -813 492 -1194 42
-121 80 -223 83 -227 19 -19 554 135 867 249 129 47 306 124 447 193 275 137
471 273 623 431 126 131 191 240 221 371 81 347 -211 714 -808 1017 -164 82
-219 108 -380 172 -224 90 -703 238 -918 285 -41 8 -104 22 -140 30 -36 8
-132 28 -215 44 -82 17 -179 36 -215 44 -90 21 -410 70 -620 96 -280 35 -300
37 -300 33 0 -3 5 -13 10 -24 7 -12 7 -19 1 -19 -5 0 -12 9 -16 19 -7 24 -30
30 -142 38 l-93 6 15 -30 c9 -17 22 -36 30 -43 8 -7 15 -16 15 -21 0 -8 54
-93 131 -207 16 -23 29 -45 29 -48 0 -3 13 -24 29 -47 34 -51 178 -291 219
-367 16 -30 40 -73 52 -95 93 -162 164 -292 232 -426 l80 -157 -43 -87 c-24
-48 -50 -100 -57 -114 -7 -14 -19 -37 -27 -51 -8 -14 -34 -63 -58 -110 -25
-47 -57 -105 -71 -130 -14 -25 -32 -58 -40 -75 -9 -16 -27 -48 -40 -70 -14
-22 -39 -67 -57 -100 -55 -106 -72 -135 -82 -135 -5 0 2 19 15 43 234 410 438
798 438 831 0 32 -270 532 -463 856 -82 139 -335 538 -371 587 -4 6 -293 25
-576 38 -497 23 -998 19 -1542 -11 l-116 -6 -143 -217 c-78 -119 -158 -240
-176 -268 -18 -29 -48 -77 -67 -105 -35 -55 -204 -337 -239 -398 -11 -19 -57
-100 -102 -180 -150 -265 -345 -639 -345 -663 0 -38 290 -570 502 -923 87
-143 125 -203 252 -398 39 -60 74 -113 77 -118 8 -12 300 -34 621 -48 436 -18
1220 -10 1545 16 l72 6 129 191 c110 165 232 354 267 415 57 99 209 341 213
338 2 -3 -5 -20 -16 -38 -11 -18 -29 -49 -40 -68 -11 -19 -49 -82 -86 -140
-36 -58 -75 -121 -86 -140 -136 -231 -368 -569 -394 -575 -30 -6 -459 -24
-756 -31 -140 -3 -416 -1 -612 5 -380 13 -404 14 -656 32 -89 7 -165 10 -168
7 -3 -4 20 -44 51 -91 l57 -86 52 -5 c323 -33 1136 -46 1635 -26 l253 11 36
27 36 27 -44 -60 c-24 -33 -47 -62 -52 -63 -4 -2 -8 -8 -8 -13 0 -9 -199 -279
-224 -304 -6 -7 -20 -24 -31 -39 -54 -74 -88 -116 -96 -116 -5 0 -9 -5 -9 -11
0 -9 -69 -99 -90 -119 -3 -3 -45 -52 -92 -110 -48 -58 -99 -119 -115 -136 -15
-16 -44 -50 -65 -75 -20 -24 -50 -60 -67 -79 -50 -56 -56 -64 -53 -72 1 -5 -1
-7 -5 -6 -11 4 -63 -43 -63 -56 0 -12 98 -116 109 -116 8 0 142 141 211 221
25 29 83 96 130 150 47 53 99 113 115 134 17 20 42 51 56 68 14 18 34 43 45
56 10 13 35 43 54 66 19 23 43 53 52 66 9 13 52 69 95 125 43 55 88 113 100
130 47 64 103 141 125 172 13 18 40 54 61 80 20 26 37 52 37 59 0 7 3 12 8 11
4 -1 43 2 87 6 44 4 100 9 125 11 25 2 97 9 160 16 63 6 131 13 150 15 59 6
281 34 350 45 117 18 184 27 275 40 50 7 95 15 100 19 6 4 38 10 73 14 35 4
104 16 155 27 51 11 105 22 121 24 61 8 86 25 86 59 1 28 2 29 14 13 8 -10 17
-35 20 -55 4 -20 16 -64 26 -97 11 -33 33 -112 50 -175 17 -63 33 -122 35
-130 17 -59 58 -241 70 -315 3 -16 9 -52 15 -80 5 -27 16 -90 25 -140 9 -49
21 -112 27 -140 9 -41 15 -218 8 -275 -3 -29 -19 24 -19 67 -2 104 -56 460
-107 698 -35 165 -137 560 -148 572 -1 1 -22 -3 -46 -8 -214 -48 -783 -140
-1020 -164 -36 -4 -74 -9 -85 -11 -11 -2 -128 -13 -260 -24 -132 -12 -249 -23
-260 -25 -11 -3 -53 -51 -97 -112 -308 -430 -674 -881 -981 -1208 l-28 -30
165 -161 c709 -693 1379 -1092 1918 -1143 489 -46 808 237 918 814 10 55 22
127 25 160 4 33 9 68 12 78 7 26 23 10 23 -24 0 -17 7 -44 16 -60 8 -17 16
-48 16 -71 0 -23 6 -42 14 -45 9 -3 11 -15 7 -35 -4 -22 -3 -29 5 -24 7 4 12
23 12 42 0 19 4 34 9 34 4 0 14 21 21 48 7 26 19 54 27 63 7 8 13 20 13 25 0
5 9 20 20 34 l19 25 -5 -60 c-10 -113 -44 -298 -74 -402 -154 -533 -497 -812
-998 -813 -406 0 -966 244 -1512 660 -220 168 -328 262 -612 533 -159 151
-179 167 -195 155 -10 -7 -81 -74 -158 -149 -690 -669 -1331 -1065 -1843
-1139 -50 -8 -138 -10 -220 -7 -137 5 -194 16 -289 58 -24 11 -45 19 -49 19
-3 0 -36 20 -72 44 -240 157 -387 438 -438 836 -24 189 -19 560 12 800 55 431
230 1119 395 1550 142 373 317 789 445 1058 24 51 44 99 44 106 0 7 -44 109
-99 227 -167 363 -321 734 -406 980 -20 57 -55 156 -76 219 -22 63 -43 118
-47 121 -4 4 -81 -12 -172 -36 -348 -88 -636 -185 -935 -313 -624 -267 -995
-591 -1057 -922 -24 -130 15 -295 104 -431 57 -89 233 -261 353 -346 270 -191
614 -353 1078 -508 141 -47 182 -64 155 -65 -20 0 -40 5 -43 10 -4 6 -10 8
-14 6 -4 -3 -32 2 -62 10 -30 9 -60 16 -66 16 -7 1 -13 5 -13 10 0 5 -6 8 -12
6 -7 -1 -38 7 -68 19 -30 12 -81 29 -112 38 -32 9 -58 20 -58 25 0 5 -6 7 -14
4 -13 -5 -280 98 -366 141 -25 12 -58 25 -73 29 -17 4 -25 11 -21 18 5 7 2 9
-9 5 -8 -3 -21 0 -27 8 -10 12 -51 24 -98 28 -16 1 -22 7 -19 18 3 12 -3 16
-26 17 -16 0 -35 6 -40 11 -6 6 -28 11 -49 11 -31 0 -38 -4 -38 -20 0 -12 5
-17 13 -14 7 2 29 -9 48 -26 19 -17 45 -40 59 -51 14 -11 36 -29 50 -41 14
-11 44 -29 67 -39 23 -11 43 -24 45 -30 2 -5 16 -11 31 -13 15 -1 38 -12 50
-24 13 -12 31 -22 41 -22 10 0 30 -8 44 -18 15 -10 58 -31 95 -47 37 -16 70
-32 73 -37 3 -4 16 -8 30 -8 13 0 24 -4 24 -10 0 -5 6 -10 14 -10 8 0 27 -6
43 -14 15 -8 48 -22 73 -31 25 -9 61 -24 80 -32 19 -8 42 -16 50 -18 24 -5
163 -55 182 -65 10 -6 26 -10 35 -10 10 0 27 -7 37 -15 34 -26 -3 -18 -156 31
-526 170 -953 378 -1228 597 -96 77 -244 225 -300 301 -234 320 -229 683 15
1008 238 317 725 611 1386 837 188 65 440 140 607 181 73 18 132 37 132 44 0
6 -16 67 -35 136 -156 553 -229 1033 -228 1485 1 333 31 553 110 785 179 530
601 795 1140 714z m4769 -2861 c-8 -15 -15 -25 -16 -21 0 12 23 58 27 54 3 -2
-2 -17 -11 -33z m-1190 -340 c187 -293 571 -961 607 -1056 4 -10 11 -16 16
-13 4 3 30 54 56 113 27 59 63 141 82 181 18 39 33 74 33 77 0 2 11 28 24 57
13 29 40 95 61 146 21 51 40 90 42 88 5 -5 -33 -119 -50 -151 -6 -11 -12 -24
-13 -30 -3 -13 -127 -292 -153 -342 -10 -21 -21 -47 -23 -58 -1 -11 -5 -22 -8
-25 -3 -3 -16 -29 -30 -58 -27 -59 -44 -77 -38 -41 2 13 -11 51 -28 84 -73
141 -114 216 -173 320 -75 132 -72 127 -112 195 -17 30 -44 78 -59 105 -15 28
-57 97 -93 155 -36 58 -86 139 -111 180 -68 112 -70 114 -81 122 -6 5 -5 8 2
8 7 0 29 -26 49 -57z m948 -358 c-4 -8 -8 -15 -10 -15 -2 0 -4 7 -4 15 0 8 4
15 10 15 5 0 7 -7 4 -15z m-2239 -79 c313 -84 562 -288 707 -581 98 -196 132
-443 93 -667 -55 -315 -251 -594 -533 -757 -160 -93 -297 -130 -502 -138 -134
-4 -169 -2 -260 17 -502 104 -870 549 -870 1054 0 194 35 346 115 506 154 306
441 520 787 586 119 22 340 13 463 -20z m1905 -1047 c0 -5 29 -69 64 -142 98
-203 226 -496 226 -517 0 -6 9 -29 21 -51 30 -60 102 -249 180 -473 37 -109
71 -201 74 -204 3 -3 5 -18 5 -34 0 -22 -5 -28 -21 -28 -12 0 -38 -4 -58 -10
-20 -5 -92 -19 -161 -30 -69 -11 -159 -27 -200 -35 -89 -17 -322 -50 -565 -80
-87 -11 -523 -55 -540 -54 -16 0 -13 4 11 16 21 10 61 60 128 159 53 79 96
145 96 148 0 3 14 25 30 49 17 25 30 50 30 56 0 6 4 11 8 11 5 0 19 18 33 41
13 22 29 48 34 57 6 10 29 49 53 87 23 39 48 79 55 90 48 76 122 204 158 273
15 30 32 59 37 65 6 7 24 39 42 72 18 33 45 83 60 110 15 28 54 100 85 160 32
61 70 133 86 161 24 44 27 56 19 85 -12 42 -12 42 0 34 6 -3 10 -10 10 -16z
m-5520 -1279 c0 -5 -4 -10 -9 -10 -6 0 -13 5 -16 10 -3 6 1 10 9 10 9 0 16 -4
16 -10z m-40 -186 c0 -2 -7 -4 -15 -4 -8 0 -15 4 -15 10 0 5 7 7 15 4 8 -4 15
-8 15 -10z"/>
<path d="M6615 10540 c-26 -4 -39 -23 -17 -26 19 -2 62 -25 62 -33 0 -5 15
-12 34 -15 18 -4 46 -20 62 -36 16 -16 36 -30 44 -30 18 0 100 -40 85 -40 -6
-1 7 -10 27 -21 21 -10 39 -18 41 -17 1 2 16 -9 32 -24 16 -15 32 -25 36 -23
4 3 12 -2 19 -10 7 -8 32 -24 56 -35 24 -10 44 -23 44 -29 0 -5 10 -13 23 -16
12 -4 31 -15 42 -25 11 -10 30 -21 43 -25 12 -3 20 -11 17 -16 -4 -5 -1 -9 6
-9 7 0 30 -15 53 -33 23 -18 67 -50 99 -71 31 -22 57 -43 57 -48 0 -4 6 -8 13
-8 6 0 35 -22 64 -48 84 -75 126 -112 130 -112 2 0 26 -18 54 -40 28 -22 47
-40 43 -40 -4 0 6 -10 22 -22 51 -38 167 -145 331 -305 86 -84 161 -153 168
-153 10 0 60 49 93 92 18 22 1 41 -186 216 -31 30 -56 58 -54 63 1 6 -2 8 -8
4 -5 -3 -35 19 -66 49 -87 86 -171 156 -178 149 -3 -3 -6 1 -6 10 0 9 -3 17
-7 17 -5 0 -22 13 -38 28 -17 16 -36 31 -42 33 -6 2 -32 24 -58 48 -25 24 -48
41 -51 38 -3 -3 -16 5 -29 17 -66 59 -75 66 -75 61 0 -3 -6 0 -14 7 -8 7 -12
16 -10 19 2 4 -9 9 -24 12 -15 4 -43 20 -62 38 -19 17 -55 42 -80 56 -25 14
-56 33 -70 43 -56 38 -376 202 -467 239 -28 12 -60 21 -70 21 -10 0 -27 6 -38
13 -11 8 -29 16 -40 20 -11 3 -33 9 -50 14 -16 5 -43 7 -60 3z"/>
<path d="M5925 10496 c-303 -69 -512 -307 -610 -692 -51 -203 -60 -288 -60
-609 0 -356 21 -563 96 -930 39 -192 150 -629 162 -642 3 -3 48 5 232 42 180
35 375 67 725 115 128 18 418 49 578 61 l153 12 51 71 c156 214 193 264 302
406 210 273 417 522 615 740 47 52 94 104 104 115 18 19 16 22 -115 150 -638
624 -1213 1001 -1738 1137 -99 26 -137 31 -275 34 -112 3 -178 0 -220 -10z"/>
<path d="M10100 10491 c-8 -6 -17 -8 -22 -5 -4 3 -16 0 -28 -6 -48 -24 -57
-28 -90 -36 -19 -4 -37 -8 -40 -9 -25 -5 -57 -20 -65 -30 -5 -7 -28 -18 -50
-25 -22 -7 -42 -16 -45 -20 -5 -8 -37 -25 -116 -63 -27 -14 -68 -37 -90 -51
-21 -15 -46 -31 -54 -36 -8 -5 -37 -26 -65 -45 -27 -19 -54 -35 -58 -35 -4 0
-13 -4 -20 -10 -51 -42 -119 -90 -146 -104 -17 -10 -35 -24 -38 -32 -3 -7 -11
-14 -18 -14 -7 0 -15 -4 -17 -8 -1 -4 -21 -21 -43 -37 -22 -17 -46 -38 -53
-47 -7 -10 -19 -18 -25 -18 -14 0 -97 -78 -97 -91 0 -5 -4 -8 -9 -6 -5 1 -40
-26 -77 -59 -38 -34 -86 -77 -108 -95 -100 -88 -583 -579 -569 -579 3 0 -9
-15 -28 -33 -19 -18 -59 -61 -89 -96 -30 -36 -61 -70 -68 -78 -8 -7 -48 -55
-89 -106 -41 -50 -92 -112 -113 -137 -22 -25 -69 -83 -105 -130 -36 -47 -74
-94 -83 -105 -16 -20 -158 -208 -190 -253 -9 -13 -46 -63 -82 -111 -36 -48
-74 -100 -85 -115 -19 -26 -26 -27 -145 -37 -102 -7 -357 -33 -540 -54 -50 -6
-298 -42 -410 -60 -52 -8 -131 -20 -175 -26 -44 -6 -89 -15 -100 -19 -11 -5
-51 -13 -90 -19 -79 -12 -281 -55 -307 -66 -11 -4 -18 -3 -18 4 0 6 4 11 8 11
5 0 16 6 26 13 16 12 16 16 -4 87 -24 85 -22 77 -50 190 -12 47 -25 94 -30
105 -11 27 -62 255 -66 295 -1 8 -4 22 -7 30 -6 17 -36 182 -41 220 -1 14 -5
30 -8 35 -3 6 -11 61 -17 124 -7 63 -14 117 -16 120 -2 4 -9 78 -15 166 -13
181 -15 507 -3 668 7 92 6 106 -6 102 -10 -4 -9 1 4 15 15 16 16 24 7 44 -9
21 -8 25 6 29 14 4 13 5 -3 6 -22 1 -51 -34 -35 -44 11 -7 2 -35 -16 -50 -10
-9 -27 -61 -39 -120 -48 -243 -65 -531 -46 -755 5 -63 15 -178 21 -255 7 -77
16 -141 21 -143 5 -2 9 -16 9 -32 0 -15 10 -79 21 -141 12 -63 23 -125 24
-139 1 -14 5 -32 8 -40 4 -8 10 -37 16 -65 14 -75 112 -454 125 -486 6 -13 -3
-19 -41 -29 -98 -25 -198 -52 -213 -58 -8 -3 -22 -6 -30 -6 -8 -1 -19 -4 -25
-7 -5 -4 -35 -12 -65 -19 -30 -7 -61 -17 -67 -23 -7 -5 -13 -7 -13 -4 0 3 -24
-3 -52 -14 -29 -10 -59 -19 -67 -19 -7 0 -39 -11 -70 -24 -46 -20 -102 -40
-166 -60 -14 -4 -43 -15 -95 -36 -25 -9 -58 -20 -73 -24 -15 -4 -25 -11 -22
-16 3 -6 -4 -10 -17 -10 -21 0 -37 -6 -93 -37 -17 -10 -50 -24 -65 -28 -3 0
-24 -11 -47 -23 -24 -12 -43 -19 -43 -15 0 5 -4 3 -8 -3 -4 -6 -47 -32 -97
-58 -49 -26 -97 -54 -106 -62 -8 -8 -20 -14 -26 -14 -6 0 -27 -15 -47 -34 -20
-19 -36 -30 -36 -25 0 6 -6 6 -17 0 -29 -16 -203 -191 -203 -204 0 -1 11 -4
25 -5 19 -1 25 3 25 18 0 11 5 20 10 20 6 0 10 -5 10 -11 0 -8 4 -8 14 0 7 6
21 9 30 5 10 -4 16 -1 16 8 0 8 24 25 53 39 28 13 54 27 55 32 2 4 8 7 14 7 5
0 22 8 36 19 15 10 39 21 55 25 15 3 27 11 27 16 0 6 6 10 13 10 6 0 35 11 62
25 28 13 58 25 68 25 9 0 17 5 17 10 0 6 5 10 10 10 6 0 40 14 75 30 35 17 68
30 73 30 15 0 62 25 62 33 0 5 4 6 9 3 8 -5 29 2 126 44 54 23 162 60 176 60
8 0 19 4 25 9 5 4 41 16 79 26 39 9 77 21 87 25 9 5 45 16 80 25 34 9 68 20
73 25 6 4 26 10 45 13 19 2 62 12 95 22 76 22 210 55 253 62 28 5 32 9 32 36
0 42 13 24 34 -48 10 -33 22 -65 27 -71 5 -6 11 -24 13 -40 5 -34 25 -94 38
-110 5 -7 7 -16 6 -20 -2 -5 3 -25 11 -44 7 -19 16 -44 21 -55 4 -11 12 -31
17 -45 21 -52 52 -137 66 -180 15 -45 137 -344 177 -436 12 -27 26 -58 30 -69
5 -11 33 -73 64 -138 31 -65 56 -120 56 -123 0 -2 23 -52 50 -110 50 -106 59
-134 40 -134 -5 0 -10 -7 -10 -16 0 -9 -18 -51 -39 -93 -41 -80 -91 -188 -91
-197 0 -3 -13 -31 -29 -63 -15 -32 -34 -75 -41 -97 -7 -21 -16 -41 -20 -44 -4
-3 -15 -25 -23 -50 -9 -25 -37 -94 -62 -155 -52 -124 -164 -421 -201 -535 -14
-41 -28 -82 -31 -90 -3 -8 -5 -19 -4 -23 0 -4 -4 -18 -11 -30 -7 -12 -21 -51
-31 -87 -21 -77 -22 -81 -30 -100 -36 -89 -149 -549 -172 -700 -4 -25 -11 -52
-15 -60 -5 -8 -11 -35 -14 -60 -2 -25 -9 -81 -15 -125 -6 -44 -13 -102 -16
-130 -3 -27 -7 -68 -10 -91 -3 -22 -6 -164 -6 -315 -1 -230 2 -286 17 -346 9
-40 20 -73 23 -73 3 0 7 -17 9 -37 1 -20 5 -39 7 -42 16 -16 26 30 31 140 2
68 9 174 13 234 5 61 9 119 9 130 1 38 22 240 30 295 5 30 15 97 22 148 8 50
16 92 19 92 3 0 7 21 8 46 1 25 10 72 19 103 9 31 17 63 18 71 7 56 21 119 31
145 7 16 16 54 20 82 4 29 11 55 15 58 5 3 12 24 16 48 4 23 8 44 9 47 0 3 8
28 17 55 9 28 28 91 42 140 15 50 34 110 42 135 9 25 18 56 20 70 3 14 10 34
14 45 5 11 25 65 44 120 40 119 92 262 105 290 23 52 41 95 61 155 12 36 26
74 30 85 39 91 54 125 69 160 10 22 31 69 46 105 15 36 40 92 56 125 85 184
107 242 102 271 -8 42 -2 32 63 -96 33 -63 65 -121 71 -128 7 -7 13 -17 13
-22 0 -8 140 -263 213 -387 81 -139 107 -185 107 -194 0 -5 3 -9 8 -9 4 0 21
-23 37 -51 17 -27 48 -78 70 -113 22 -35 54 -85 70 -112 83 -135 357 -535 380
-554 8 -7 15 -17 15 -22 0 -6 10 -23 23 -38 34 -44 91 -121 102 -140 14 -24
94 -129 124 -162 13 -16 31 -39 40 -52 15 -23 57 -75 126 -157 16 -20 44 -53
60 -74 17 -20 40 -49 53 -64 13 -14 35 -42 50 -61 15 -19 38 -46 52 -60 14
-14 43 -47 65 -75 22 -27 79 -90 126 -140 47 -49 124 -130 170 -179 115 -122
334 -335 421 -411 59 -51 170 -149 184 -163 7 -6 20 -12 28 -12 9 0 16 -7 16
-15 0 -8 4 -15 9 -15 11 0 122 -89 139 -112 7 -10 18 -18 23 -18 6 0 56 -34
112 -75 56 -42 119 -83 139 -93 21 -9 38 -23 38 -31 0 -8 3 -11 6 -8 4 3 18
-3 32 -13 13 -11 31 -20 38 -20 8 0 14 -4 14 -10 0 -5 6 -10 14 -10 8 0 21 -6
28 -12 23 -21 50 -37 115 -68 34 -16 64 -34 67 -39 4 -5 20 -13 37 -16 46 -10
110 -41 102 -48 -6 -6 -1 -8 40 -11 6 -1 14 -3 17 -6 12 -12 51 -30 65 -30 8
0 34 -9 58 -19 40 -18 96 -32 143 -36 11 -1 26 -5 33 -9 8 -5 16 -4 20 3 4 6
15 9 24 5 9 -3 15 -9 13 -13 -2 -3 16 -4 40 -2 l44 3 -26 21 c-16 12 -39 20
-59 19 -18 -1 -39 5 -45 13 -7 8 -19 15 -26 15 -8 0 -14 5 -14 10 0 6 -12 15
-27 21 -51 20 -98 44 -111 56 -7 7 -23 13 -35 13 -29 1 -107 36 -107 50 0 5
-7 10 -16 10 -8 0 -12 5 -9 10 3 6 -2 10 -12 10 -11 0 -23 4 -28 9 -6 5 -46
28 -90 51 -44 24 -82 46 -85 50 -3 4 -59 43 -125 87 -66 44 -126 88 -134 97
-7 9 -18 16 -23 16 -5 0 -14 5 -21 10 -34 29 -58 48 -83 66 -15 10 -43 33 -63
50 -20 17 -44 35 -53 40 -17 9 -80 61 -147 122 -20 18 -50 42 -67 54 -17 12
-40 34 -50 50 -10 15 -22 28 -26 28 -12 0 -61 46 -272 255 -238 237 -476 495
-476 518 0 4 -4 5 -10 2 -5 -3 -10 -1 -10 4 0 6 -24 37 -53 69 -29 31 -66 75
-82 97 -16 22 -32 42 -36 45 -30 27 -330 416 -458 595 -36 50 -67 92 -70 95
-7 6 -44 61 -151 220 -74 110 -128 193 -243 373 -29 45 -70 108 -90 139 -20
32 -37 60 -37 64 0 3 -25 46 -56 96 -30 49 -59 99 -65 111 -9 23 -30 58 -39
67 -3 3 -21 35 -40 73 -19 37 -39 67 -44 67 -5 0 -6 3 -3 7 4 3 1 13 -6 22
-14 16 -90 158 -199 371 l-59 115 90 180 c107 212 155 302 262 487 43 76 79
140 79 142 0 2 23 41 50 85 28 44 50 83 50 87 0 3 13 24 29 47 15 23 38 60 50
82 24 45 20 40 119 191 39 62 72 115 72 118 0 3 7 14 15 23 8 10 62 90 119
177 57 87 110 168 117 178 40 57 3 50 373 68 115 6 421 10 680 10 463 0 715
-8 1071 -35 33 -3 125 -9 205 -15 122 -9 260 -23 450 -45 87 -10 213 -27 295
-40 50 -7 140 -21 200 -30 61 -9 153 -26 206 -37 54 -10 135 -25 180 -33 112
-18 395 -81 469 -105 19 -6 51 -13 70 -16 19 -3 52 -12 73 -19 20 -8 46 -15
56 -15 11 0 76 -18 146 -40 70 -21 130 -38 134 -38 3 1 22 -5 41 -14 19 -9 61
-24 93 -33 31 -9 57 -19 57 -23 0 -4 13 -8 30 -9 16 -1 51 -12 77 -24 26 -12
52 -22 58 -24 5 -1 21 -7 35 -12 14 -6 46 -18 72 -27 26 -8 56 -20 65 -25 10
-4 56 -25 103 -46 47 -21 130 -60 186 -87 56 -26 103 -48 106 -48 3 0 37 -18
74 -40 38 -22 76 -40 84 -40 8 0 32 -11 52 -25 28 -19 45 -24 64 -19 19 5 25
4 20 -5 -4 -7 0 -11 11 -11 13 0 8 9 -22 37 -22 20 -39 40 -38 45 2 4 0 7 -5
5 -4 -1 -21 10 -37 26 -16 15 -34 27 -38 27 -5 0 -22 13 -38 29 -16 16 -57 47
-92 67 -34 21 -65 42 -69 48 -4 6 -10 7 -14 3 -4 -3 -14 2 -23 12 -13 14 -315
168 -426 216 -62 26 -120 50 -125 51 -3 0 -18 6 -33 12 -16 7 -35 12 -43 12
-8 0 -14 4 -14 9 0 5 -15 11 -32 14 -18 3 -99 28 -179 56 -81 27 -157 52 -170
55 -13 2 -44 12 -69 21 -25 9 -52 18 -61 20 -48 10 -156 37 -169 42 -18 8
-116 31 -150 37 -14 2 -50 11 -80 19 -30 8 -68 18 -85 21 -16 3 -86 17 -155
31 -69 14 -147 29 -175 35 -27 6 -70 13 -95 16 -25 3 -74 11 -110 19 -63 13
-242 40 -325 49 -22 2 -92 12 -155 20 -220 31 -566 61 -1010 87 -340 21 -1488
15 -1632 -8 -47 -7 -48 1 -5 22 30 15 57 47 117 140 15 22 33 47 41 55 8 8 26
31 39 50 13 19 27 37 30 40 9 9 106 134 116 151 5 9 25 36 46 60 20 24 80 98
134 163 54 66 115 138 136 160 21 23 38 45 38 50 0 5 15 25 34 45 63 67 98
106 170 186 104 116 240 259 250 264 5 2 20 17 35 33 74 82 121 128 130 128 5
0 13 9 16 20 3 11 9 20 13 20 12 0 62 47 62 59 0 6 4 10 8 8 5 -1 29 17 53 40
24 23 60 55 79 73 19 17 60 54 90 83 72 68 108 97 119 97 5 0 36 27 69 60 34
33 65 60 70 60 4 0 19 10 32 23 14 12 26 21 27 20 2 -2 11 4 21 13 16 15 95
75 185 142 24 17 49 32 55 32 6 0 24 11 41 26 16 14 33 25 36 25 19 -2 25 1
25 13 0 12 25 30 33 24 1 -1 11 6 22 15 11 9 24 17 28 16 5 0 23 11 42 25 18
14 41 26 49 26 9 0 16 3 16 8 0 4 18 15 40 25 23 9 43 24 46 32 4 8 17 15 30
15 15 0 24 6 24 15 0 8 9 15 19 15 11 0 26 7 35 15 8 8 25 19 38 24 17 7 19
10 6 10 -10 1 -18 6 -18 11 0 12 -40 13 -60 1z m-3090 -2945 c-50 -74 -90
-139 -90 -145 0 -5 -3 -11 -7 -13 -10 -4 -155 -224 -205 -311 -4 -6 -30 -49
-58 -94 -27 -46 -50 -86 -50 -90 0 -3 -7 -14 -15 -23 -8 -8 -52 -83 -98 -165
-46 -83 -95 -170 -109 -195 -34 -60 -100 -184 -129 -240 -12 -25 -31 -57 -41
-72 -11 -16 -18 -28 -15 -28 2 0 -14 -33 -35 -72 -21 -40 -41 -81 -44 -90 -4
-10 -10 -18 -15 -18 -5 0 -4 11 1 25 12 30 11 33 -56 170 -29 61 -62 133 -72
160 -11 28 -31 75 -45 105 -43 96 -83 192 -127 305 -23 61 -48 124 -55 140
-38 88 -57 137 -79 203 -14 39 -25 73 -25 75 1 5 -22 63 -31 79 -6 10 -10 26
-10 35 0 10 -9 42 -20 71 -32 84 -36 79 80 102 106 21 277 53 298 56 12 1 69
10 125 18 56 9 136 21 177 27 41 5 86 12 100 15 14 2 45 7 70 10 25 2 117 13
205 24 88 10 220 24 292 31 88 7 136 16 144 25 6 8 15 14 20 14 4 0 -32 -61
-81 -134z"/>
<path d="M6805 7615 c-412 -44 -683 -85 -1162 -177 -35 -6 -63 -17 -63 -23 0
-20 94 -290 176 -506 117 -310 348 -839 366 -839 4 0 26 37 49 82 180 357 533
958 790 1344 77 116 92 147 70 143 -3 -1 -105 -11 -226 -24z"/>
<path d="M8500 9125 l-54 -55 20 -22 c78 -89 104 -120 144 -168 25 -29 56 -65
70 -80 14 -15 42 -47 62 -71 20 -24 55 -66 78 -93 23 -27 67 -81 98 -120 31
-39 61 -76 67 -82 5 -7 19 -24 30 -39 27 -38 94 -127 150 -200 79 -103 104
-137 176 -237 38 -53 77 -99 87 -102 9 -2 59 -7 110 -11 l94 -7 -13 24 c-13
24 -46 74 -64 94 -5 7 -28 38 -50 69 -100 144 -132 184 -139 177 -4 -4 -6 -2
-4 5 2 6 -28 53 -67 104 -38 50 -77 101 -85 113 -41 58 -242 306 -335 412 -5
7 -30 36 -55 65 -96 113 -251 279 -260 279 -3 0 -30 -25 -60 -55z"/>
<path d="M8252 8858 c-173 -197 -366 -428 -495 -596 -127 -165 -288 -385 -284
-389 2 -2 107 2 233 8 273 13 1207 7 1466 -11 234 -15 227 -17 186 40 -291
402 -562 742 -808 1015 -62 69 -116 125 -120 125 -4 0 -84 -87 -178 -192z"/>
<path d="M6118 5584 c-3 -5 -46 -99 -95 -209 -158 -353 -329 -787 -318 -805 2
-4 21 -10 42 -13 21 -3 144 -24 274 -46 131 -22 293 -48 360 -57 190 -25 424
-52 428 -48 2 2 -43 76 -100 166 -164 260 -456 767 -566 982 -11 21 -22 35
-25 30z"/>
<path d="M5666 4473 c-14 -42 -23 -80 -18 -84 4 -4 57 -15 117 -24 61 -9 126
-20 145 -25 19 -5 71 -14 115 -20 44 -7 89 -14 100 -16 23 -4 195 -29 305 -44
211 -28 312 -40 380 -46 41 -3 87 -8 103 -9 15 -2 27 -1 27 1 0 9 -101 162
-113 172 -7 6 -87 18 -177 27 -91 9 -181 20 -200 25 -19 5 -78 13 -130 19
-128 15 -280 38 -365 56 -38 8 -90 17 -115 20 -25 3 -61 10 -80 15 -64 18 -66
16 -94 -67z"/>
<path d="M5629 4364 c-11 -14 -22 -49 -113 -361 -117 -399 -183 -741 -217
-1113 -14 -163 -7 -487 15 -615 85 -500 334 -744 736 -722 270 15 617 155 970
393 167 113 174 118 299 213 232 177 721 623 721 657 0 6 -35 50 -77 96 -119
129 -142 155 -231 263 -46 55 -95 114 -110 130 -37 42 -270 336 -307 389 -16
23 -62 85 -101 137 -39 52 -111 153 -161 224 l-91 131 -139 13 c-320 29 -876
110 -1101 160 -65 14 -84 15 -93 5z"/>
<path d="M7235 4149 c57 -95 594 -794 644 -839 4 -3 21 -23 40 -45 58 -68 174
-198 224 -250 l48 -50 65 70 c111 119 344 392 491 575 161 200 403 521 403
534 0 4 -17 5 -37 2 -21 -3 -308 -9 -638 -12 -558 -6 -775 -2 -1149 23 -84 5
-98 4 -91 -8z"/>
<path d="M7920 2661 c-69 -70 -161 -159 -205 -199 -44 -39 -96 -87 -115 -106
-19 -19 -55 -50 -80 -69 -25 -18 -62 -51 -82 -71 -20 -21 -42 -35 -47 -31 -6
3 -11 -1 -11 -9 0 -9 -13 -22 -29 -31 -16 -8 -31 -18 -33 -22 -3 -9 -74 -63
-81 -63 -3 0 -21 -15 -40 -32 -50 -48 -64 -58 -71 -51 -3 4 -6 1 -6 -5 0 -7
-19 -24 -42 -39 -24 -15 -45 -30 -48 -33 -11 -11 -69 -50 -75 -50 -3 0 -16 -9
-28 -21 -12 -11 -38 -29 -58 -39 -19 -10 -41 -26 -48 -34 -8 -9 -19 -16 -26
-16 -7 0 -27 -13 -45 -30 -18 -16 -38 -30 -45 -30 -18 0 -43 -31 -47 -60 -3
-22 -7 -24 -50 -23 -27 1 -48 -3 -48 -8 0 -6 5 -7 11 -3 8 4 9 0 4 -15 -7 -24
12 -30 21 -6 4 10 20 15 45 15 21 0 39 5 39 10 0 6 3 9 8 9 20 -3 32 2 32 15
0 9 12 14 35 14 19 0 42 7 50 16 9 9 25 16 34 16 10 0 24 7 31 14 6 8 34 22
61 31 27 9 49 20 49 23 0 4 21 18 48 31 68 35 195 114 220 139 7 6 17 12 22
12 5 0 23 12 41 28 18 15 33 25 33 22 1 -4 36 23 68 53 10 9 23 17 28 17 6 0
10 5 10 10 0 6 12 16 28 22 15 7 35 19 44 28 18 17 72 63 133 116 22 18 44 34
48 34 11 0 67 59 67 71 0 6 4 8 9 4 5 -3 17 5 25 17 9 12 16 19 16 15 0 -5 19
10 43 33 23 23 102 99 176 171 l134 129 -49 54 c-27 30 -56 54 -64 54 -8 0
-71 -57 -140 -127z"/>
<path d="M8230 6942 c-30 -2 -59 -7 -64 -13 -6 -5 -23 -9 -39 -9 -15 0 -36 -4
-45 -9 -9 -5 -33 -10 -52 -12 -33 -3 -99 -32 -110 -49 -3 -4 -29 -15 -58 -25
-29 -9 -56 -23 -59 -30 -2 -8 -17 -16 -31 -20 -15 -3 -36 -19 -47 -35 -11 -16
-21 -27 -23 -25 -2 2 -23 -17 -45 -42 -23 -25 -57 -59 -74 -76 -18 -16 -30
-33 -28 -37 3 -4 -2 -13 -10 -20 -8 -7 -15 -18 -15 -25 0 -8 -11 -22 -25 -33
-14 -11 -25 -29 -25 -40 0 -11 -9 -37 -19 -59 -22 -43 -34 -73 -36 -88 -1 -5
-8 -23 -15 -40 -25 -60 -35 -168 -29 -322 4 -84 11 -158 16 -165 6 -7 16 -37
23 -66 7 -29 18 -59 26 -67 8 -7 15 -23 17 -34 2 -12 14 -36 27 -53 14 -18 24
-36 22 -40 -1 -5 2 -8 8 -8 5 0 16 -16 26 -35 9 -19 40 -57 69 -84 30 -27 51
-52 48 -55 -4 -3 0 -6 9 -6 8 0 25 -13 38 -30 13 -16 28 -30 33 -30 6 0 25
-11 43 -25 18 -14 37 -25 43 -25 6 0 11 -4 11 -10 0 -13 56 -41 94 -47 17 -2
41 -11 53 -19 12 -8 29 -14 38 -14 8 0 15 -4 15 -9 0 -20 360 -42 435 -27 11
3 41 8 68 12 26 3 47 11 47 17 0 6 3 7 6 4 4 -4 19 2 34 13 16 11 37 20 48 20
11 0 27 6 34 13 7 8 25 17 40 20 14 4 40 18 56 32 17 14 34 25 40 25 5 0 24
14 42 30 18 17 36 30 41 30 5 0 9 7 9 15 0 8 6 15 14 15 8 0 17 9 21 19 3 10
24 34 45 51 22 18 40 39 40 46 0 8 5 14 10 14 6 0 10 6 10 13 0 7 9 23 20 35
11 12 20 24 20 28 0 3 9 17 20 31 11 14 17 29 14 34 -3 5 -1 9 4 9 7 0 39 90
67 188 9 31 22 291 14 286 -3 -2 -7 28 -7 67 -1 39 -4 75 -7 80 -4 5 -9 22
-11 37 -3 15 -9 29 -15 30 -5 2 -9 11 -9 20 0 19 -29 102 -30 87 0 -5 -7 -2
-15 8 -7 11 -11 25 -8 33 3 8 0 14 -7 14 -7 0 -10 7 -6 15 3 9 -1 18 -9 21 -8
4 -15 12 -15 20 0 7 -15 29 -32 47 -18 19 -58 60 -89 93 -70 74 -125 124 -139
124 -5 0 -10 4 -10 8 0 5 -16 16 -35 25 -19 9 -35 21 -35 26 0 5 -10 11 -22
14 -25 5 -73 22 -128 44 -19 7 -46 16 -60 19 -50 11 -267 29 -320 26z"/>
<path d="M10389 5753 c-211 -400 -514 -912 -745 -1257 -40 -60 -72 -111 -70
-113 8 -8 510 48 776 87 245 36 679 116 689 126 6 6 -85 280 -141 429 -139
365 -380 925 -398 925 -4 0 -53 -89 -111 -197z"/>
</g>
</svg>
